<svg xmlns="http://www.w3.org/2000/svg" width="1134" height="389.122" viewBox="0 0 1134 389.122"><defs><style>.a{opacity:0.25;}.b{fill:#8eedc7;}.c{fill:#f2f2f2;}.d{opacity:0.1;}.e{fill:#2f2e41;}.f{fill:#3f3d56;}</style></defs><g transform="translate(-31 -106.025)"><g class="a" transform="translate(31 201.019)"><circle class="b" cx="45.41" cy="45.41" r="45.41" transform="translate(171.02 -70.887)"/><path class="c" d="M203.723,389.315l-53.34-52.558-13.228-13.034-39.481-38.9L48.732,337.068,0,389.1" transform="translate(0 -96.206)"/><path class="c" d="M520.354,321.158H159.71l44.62-48.368,82.439-96.7,5.556-6.516L366.9,82.1l51.6,81.724,1.351,2.139,65.646,103.955Z" transform="translate(-53.947 -27.731)"/><path class="c" d="M842.663,362.721l-89.08-105.107L709.915,206.09l-42.206,52.92-38.5,48.286L585.18,362.5" transform="translate(-197.663 -69.612)"/><path class="d" d="M162.012,323.723l-23.5,15.759-27.75-10.932-37.169,8.518,48.942-52.246Z" transform="translate(-24.857 -96.206)"/><path class="d" d="M486.142,163.828l-7.874,13.834-17.655-18.5-19.343,18.5-10.933-21.019-17.661,21.019-5.046-13.45-11.768,13.45-21.025-13.45-14.867,5.364L434.542,82.1Z" transform="translate(-121.592 -27.731)"/><path class="d" d="M795.68,257.614,773.874,284.3l-17.659-21.023-26.909,21.864L709.8,259.01l42.206-52.92Z" transform="translate(-239.759 -69.612)"/><path class="e" d="M938.454,490.645l-1.177-.608c15.285-29.551,7.112-67.927-2.436-94.917a290.9,290.9,0,0,0-24.686-52.1l1.119-.707a292.4,292.4,0,0,1,24.815,52.365C945.725,421.915,953.956,460.674,938.454,490.645Z" transform="translate(-382.265 -196.517)"/><rect class="e" width="47.799" height="1.324" transform="translate(558.933 193.053) rotate(-79.645)"/><rect class="e" width="1.325" height="65.13" transform="matrix(0.732, -0.681, 0.681, 0.732, 509.422, 186.994)"/><rect class="e" width="38.414" height="1.325" transform="matrix(0.586, -0.81, 0.81, 0.586, 567.653, 269.602)"/><circle class="b" cx="6.622" cy="6.622" r="6.622" transform="translate(564.872 120.323)"/><circle class="f" cx="6.622" cy="6.622" r="6.622" transform="translate(492.69 171.314)"/><circle class="f" cx="6.622" cy="6.622" r="6.622" transform="translate(521.828 177.936)"/><circle class="b" cx="6.622" cy="6.622" r="6.622" transform="translate(508.583 203.762)"/><circle class="f" cx="6.622" cy="6.622" r="6.622" transform="translate(591.36 220.318)"/><circle class="f" cx="6.622" cy="6.622" r="6.622" transform="translate(569.507 227.602)"/><circle class="f" cx="6.622" cy="6.622" r="6.622" transform="translate(584.738 248.793)"/><circle class="f" cx="6.622" cy="6.622" r="6.622" transform="translate(515.205 128.27)"/><path class="e" d="M689.454,488.645l-1.177-.608c15.285-29.551,7.112-67.927-2.436-94.917a290.9,290.9,0,0,0-24.686-52.1l1.119-.708a292.4,292.4,0,0,1,24.815,52.365C696.725,419.915,704.956,458.674,689.454,488.645Z" transform="translate(-298.157 -195.841)"/><rect class="e" width="47.799" height="1.324" transform="translate(394.04 191.728) rotate(-79.645)"/><rect class="e" width="1.325" height="65.13" transform="matrix(0.732, -0.681, 0.681, 0.732, 344.53, 185.67)"/><rect class="e" width="38.414" height="1.325" transform="matrix(0.586, -0.81, 0.81, 0.586, 402.76, 268.277)"/><circle class="f" cx="6.622" cy="6.622" r="6.622" transform="translate(399.979 118.999)"/><circle class="f" cx="6.622" cy="6.622" r="6.622" transform="translate(327.798 169.989)"/><circle class="f" cx="6.622" cy="6.622" r="6.622" transform="translate(356.935 176.612)"/><circle class="f" cx="6.622" cy="6.622" r="6.622" transform="translate(343.691 202.438)"/><circle class="b" cx="6.622" cy="6.622" r="6.622" transform="translate(426.468 218.993)"/><circle class="f" cx="6.622" cy="6.622" r="6.622" transform="translate(404.615 226.278)"/><circle class="f" cx="6.622" cy="6.622" r="6.622" transform="translate(419.846 247.469)"/><circle class="f" cx="6.622" cy="6.622" r="6.622" transform="translate(350.313 126.945)"/><path class="e" d="M281.7,488.645l1.177-.608c-15.285-29.551-7.112-67.927,2.436-94.917A290.909,290.909,0,0,1,310,341.02l-1.119-.707a292.394,292.394,0,0,0-24.815,52.365C274.434,419.915,266.2,458.674,281.7,488.645Z" transform="translate(-167.067 -195.841)"/><rect class="e" width="1.324" height="47.799" transform="translate(102.001 144.941) rotate(-10.355)"/><rect class="e" width="65.13" height="1.325" transform="matrix(0.681, -0.732, 0.732, 0.681, 116.065, 232.45)"/><rect class="e" width="1.325" height="38.414" transform="matrix(0.81, -0.586, 0.586, 0.81, 79.598, 237.919)"/><circle class="f" cx="6.622" cy="6.622" r="6.622" transform="translate(92.71 118.999)"/><circle class="f" cx="6.622" cy="6.622" r="6.622" transform="translate(164.892 169.989)"/><circle class="f" cx="6.622" cy="6.622" r="6.622" transform="translate(135.755 176.612)"/><circle class="f" cx="6.622" cy="6.622" r="6.622" transform="translate(148.999 202.438)"/><circle class="f" cx="6.622" cy="6.622" r="6.622" transform="translate(66.222 218.993)"/><circle class="f" cx="6.622" cy="6.622" r="6.622" transform="translate(88.075 226.278)"/><circle class="b" cx="6.622" cy="6.622" r="6.622" transform="translate(72.844 247.469)"/><circle class="f" cx="6.622" cy="6.622" r="6.622" transform="translate(142.377 126.945)"/><rect class="e" width="645" height="1.324" transform="translate(0 292.5)"/><path class="c" d="M309.2,198.016A30.092,30.092,0,0,0,259.7,208.7l55.268-2.561A30.034,30.034,0,0,0,309.2,198.016Z" transform="translate(-162.553 -144.784)"/><path class="c" d="M489.2,131.016A30.092,30.092,0,0,0,439.7,141.7l55.268-2.561A30.035,30.035,0,0,0,489.2,131.016Z" transform="translate(-223.354 -122.153)"/><path class="c" d="M806.2,298.016A30.092,30.092,0,0,0,756.7,308.7l55.268-2.561A30.036,30.036,0,0,0,806.2,298.016Z" transform="translate(-330.431 -178.563)"/></g><g class="a" transform="translate(520 106.019)"><circle class="b" cx="45.41" cy="45.41" r="45.41" transform="translate(214.02 59.113)"/><path class="c" d="M203.723,389.315l-53.34-52.558-13.228-13.034-39.481-38.9L48.732,337.068,0,389.1" transform="translate(0 -96.206)"/><path class="c" d="M520.354,321.158H159.71l44.62-48.368,82.439-96.7,5.556-6.516L366.9,82.1l51.6,81.724,1.351,2.139,65.646,103.955Z" transform="translate(-53.947 -27.731)"/><path class="c" d="M842.663,362.721l-89.08-105.107L709.915,206.09l-42.206,52.92-38.5,48.286L585.18,362.5" transform="translate(-197.663 -69.612)"/><path class="d" d="M162.012,323.723l-23.5,15.759-27.75-10.932-37.169,8.518,48.942-52.246Z" transform="translate(-24.857 -96.206)"/><path class="d" d="M486.142,163.828l-7.874,13.834-17.655-18.5-19.343,18.5-10.933-21.019-17.661,21.019-5.046-13.45-11.768,13.45-21.025-13.45-14.867,5.364L434.542,82.1Z" transform="translate(-121.592 -27.731)"/><path class="d" d="M795.68,257.614,773.874,284.3l-17.659-21.023-26.909,21.864L709.8,259.01l42.206-52.92Z" transform="translate(-239.759 -69.612)"/><path class="e" d="M938.454,490.645l-1.177-.608c15.285-29.551,7.112-67.927-2.436-94.917a290.9,290.9,0,0,0-24.686-52.1l1.119-.707a292.4,292.4,0,0,1,24.815,52.365C945.725,421.915,953.956,460.674,938.454,490.645Z" transform="translate(-382.265 -196.517)"/><rect class="e" width="47.799" height="1.324" transform="translate(558.933 193.053) rotate(-79.645)"/><rect class="e" width="1.325" height="65.13" transform="matrix(0.732, -0.681, 0.681, 0.732, 509.422, 186.994)"/><rect class="e" width="38.414" height="1.325" transform="matrix(0.586, -0.81, 0.81, 0.586, 567.653, 269.602)"/><circle class="b" cx="6.622" cy="6.622" r="6.622" transform="translate(564.872 120.323)"/><circle class="f" cx="6.622" cy="6.622" r="6.622" transform="translate(492.69 171.314)"/><circle class="f" cx="6.622" cy="6.622" r="6.622" transform="translate(521.828 177.936)"/><circle class="b" cx="6.622" cy="6.622" r="6.622" transform="translate(508.583 203.762)"/><circle class="f" cx="6.622" cy="6.622" r="6.622" transform="translate(591.36 220.318)"/><circle class="f" cx="6.622" cy="6.622" r="6.622" transform="translate(569.507 227.602)"/><circle class="f" cx="6.622" cy="6.622" r="6.622" transform="translate(584.738 248.793)"/><circle class="f" cx="6.622" cy="6.622" r="6.622" transform="translate(515.205 128.27)"/><path class="e" d="M689.454,488.645l-1.177-.608c15.285-29.551,7.112-67.927-2.436-94.917a290.9,290.9,0,0,0-24.686-52.1l1.119-.708a292.4,292.4,0,0,1,24.815,52.365C696.725,419.915,704.956,458.674,689.454,488.645Z" transform="translate(-298.157 -195.841)"/><rect class="e" width="47.799" height="1.324" transform="translate(394.04 191.728) rotate(-79.645)"/><rect class="e" width="1.325" height="65.13" transform="matrix(0.732, -0.681, 0.681, 0.732, 344.53, 185.67)"/><rect class="e" width="38.414" height="1.325" transform="matrix(0.586, -0.81, 0.81, 0.586, 402.76, 268.277)"/><circle class="f" cx="6.622" cy="6.622" r="6.622" transform="translate(399.979 118.999)"/><circle class="f" cx="6.622" cy="6.622" r="6.622" transform="translate(327.798 169.989)"/><circle class="f" cx="6.622" cy="6.622" r="6.622" transform="translate(356.935 176.612)"/><circle class="f" cx="6.622" cy="6.622" r="6.622" transform="translate(343.691 202.438)"/><circle class="b" cx="6.622" cy="6.622" r="6.622" transform="translate(426.468 218.993)"/><circle class="f" cx="6.622" cy="6.622" r="6.622" transform="translate(404.615 226.278)"/><circle class="f" cx="6.622" cy="6.622" r="6.622" transform="translate(419.846 247.469)"/><circle class="f" cx="6.622" cy="6.622" r="6.622" transform="translate(350.313 126.945)"/><path class="e" d="M281.7,488.645l1.177-.608c-15.285-29.551-7.112-67.927,2.436-94.917A290.909,290.909,0,0,1,310,341.02l-1.119-.707a292.394,292.394,0,0,0-24.815,52.365C274.434,419.915,266.2,458.674,281.7,488.645Z" transform="translate(-167.067 -195.841)"/><rect class="e" width="1.324" height="47.799" transform="translate(102.001 144.941) rotate(-10.355)"/><rect class="e" width="65.13" height="1.325" transform="matrix(0.681, -0.732, 0.732, 0.681, 116.065, 232.45)"/><rect class="e" width="1.325" height="38.414" transform="matrix(0.81, -0.586, 0.586, 0.81, 79.598, 237.919)"/><circle class="f" cx="6.622" cy="6.622" r="6.622" transform="translate(92.71 118.999)"/><circle class="f" cx="6.622" cy="6.622" r="6.622" transform="translate(164.892 169.989)"/><circle class="f" cx="6.622" cy="6.622" r="6.622" transform="translate(135.755 176.612)"/><circle class="f" cx="6.622" cy="6.622" r="6.622" transform="translate(148.999 202.438)"/><circle class="f" cx="6.622" cy="6.622" r="6.622" transform="translate(66.222 218.993)"/><circle class="f" cx="6.622" cy="6.622" r="6.622" transform="translate(88.075 226.278)"/><circle class="b" cx="6.622" cy="6.622" r="6.622" transform="translate(72.844 247.469)"/><circle class="f" cx="6.622" cy="6.622" r="6.622" transform="translate(142.377 126.945)"/><rect class="e" width="645" height="1.324" transform="translate(0 292.5)"/><path class="c" d="M309.2,198.016A30.092,30.092,0,0,0,259.7,208.7l55.268-2.561A30.034,30.034,0,0,0,309.2,198.016Z" transform="translate(-162.553 -144.784)"/><path class="c" d="M489.2,131.016A30.092,30.092,0,0,0,439.7,141.7l55.268-2.561A30.035,30.035,0,0,0,489.2,131.016Z" transform="translate(-223.354 -122.153)"/><path class="c" d="M806.2,298.016A30.092,30.092,0,0,0,756.7,308.7l55.268-2.561A30.036,30.036,0,0,0,806.2,298.016Z" transform="translate(-330.431 -178.563)"/></g></g></svg>