<svg xmlns="http://www.w3.org/2000/svg" width="992.002" height="439.926" viewBox="0 0 992.002 439.926"><defs><style>.a,.f{fill:#3f3d56;}.b{fill:#8eedc7;}.c,.j{fill:none;}.c,.f{stroke:#3f3d56;stroke-miterlimit:10;}.c,.f,.j{stroke-width:2px;}.d{opacity:0.1;}.e{fill:#ff6584;}.g{fill:#f2f2f2;}.h{fill:#2f2e41;}.i{fill:#ffb8b8;}.j{stroke:#323f4b;}</style></defs><g transform="translate(-104.5 -278)"><g transform="translate(143 75.955)"><path class="a" d="M401.659,648.857c-26.844,41.167-19.489,93.526-19.489,93.526S433.048,728,459.892,686.83,479.381,593.3,479.381,593.3,428.5,607.69,401.659,648.857Z" transform="translate(-194.523 -101.685)"/><path class="b" d="M332.556,746.99s-.654-.1-1.856-.348c-.959-.195-2.28-.473-3.893-.855-14.419-3.4-52.752-14.891-77.815-45.105-31.368-37.833-30.047-90.69-30.047-90.69s47.962,7.793,79.566,41.768q2.054,2.19,4,4.54c27.294,32.918,29.838,77.21,30.04,88.159C332.577,746.1,332.556,746.99,332.556,746.99Z" transform="translate(-145.052 -106.772)"/><path class="c" d="M320.062,648.857c26.844,41.167,19.489,93.526,19.489,93.526S288.672,728,261.828,686.83,242.339,593.3,242.339,593.3,293.218,607.69,320.062,648.857Z" transform="translate(-151.903 -101.685)"/><path class="d" d="M367.183,762.772c-.709.855-1.335,1.585-1.849,2.183-1.14,1.3-1.787,1.981-1.787,1.981s-.786-.987-2.106-2.836c-7.251-10.108-30.575-46.05-28.775-87.568q.146-3.264.48-6.458,2.054,2.19,4,4.54C364.437,707.531,366.981,751.822,367.183,762.772Z" transform="translate(-179.685 -125.084)"/><path class="b" d="M409.118,644.047c-2.122,49.1-38.57,87.4-38.57,87.4s-33.008-41.3-30.886-90.4,38.57-87.4,38.57-87.4S411.24,594.946,409.118,644.047Z" transform="translate(-181.818 -89.596)"/><circle class="e" cx="4.543" cy="4.543" r="4.543" transform="translate(18.717 561.427)"/><line class="c" x2="189.792" transform="translate(113.319 640.545)"/><line class="c" x2="128.182" transform="translate(-38.5 640.545)"/><line class="f" y1="51.731" transform="translate(45.52 589.65)"/><circle class="a" cx="7.316" cy="7.316" r="7.316" transform="translate(38.205 582.334)"/><path class="a" d="M168.285,771.373s-1.045-22.477-22.469-19.865" transform="translate(-122.765 -149.84)"/><line class="c" y1="174.414" x2="8.013" transform="translate(188.731 466.048)"/></g><g transform="translate(763.042 278)"><ellipse class="g" cx="5.646" cy="5.646" rx="5.646" ry="5.646" transform="translate(261.475 361.686)"/><path class="h" d="M478.852,190.932a15.4,15.4,0,0,1-1.913-20.767c-.31.291-.613.593-.9.914a15.4,15.4,0,0,0,22.853,20.663c.29-.321.56-.653.818-.991A15.4,15.4,0,0,1,478.852,190.932Z" transform="translate(-295.11 -123.47)"/><circle class="h" cx="31.726" cy="31.726" r="31.726" transform="translate(150.571 7.702)"/><path class="h" d="M340.261,789.8s-8.436,8.436,0,8.436,16.5-5.5,16.5-5.5Z" transform="translate(-243.422 -359.758)"/><path class="h" d="M540.674,777.114s-2.335,11.7,4.682,7.017,10.675-13.737,10.675-13.737Z" transform="translate(-321.134 -352.357)"/><path class="i" d="M360.644,338.644l-5.5,12.837L321.4,396.228s-23.107,24.941-10.27,26.408S332.4,399.529,332.4,399.529l39.612-39.245,4.4-17.972Z" transform="translate(-232.263 -187.717)"/><path class="h" d="M406.032,254.46l-5.317,1.488s-20.724,36.656-18.524,44.358,12.1,17.238,16.5,16.5S406.032,254.46,406.032,254.46Z" transform="translate(-260.779 -155.614)"/><path class="i" d="M441.091,186.229s5.5,22.74,1.467,27.141-12.837,7.7-12.837,7.7l1.467,41.079s16.872-5.868,17.605-6.6,15.771-24.574,15.771-24.574l14.671-13.937s-22.373-10.636-15.771-28.975S441.091,186.229,441.091,186.229Z" transform="translate(-278.966 -126.994)"/><circle class="i" cx="19.072" cy="19.072" r="19.072" transform="translate(156.623 29.525)"/><path class="h" d="M391.1,241.528s-13.571,3.668-14.3,8.8,0,15.771-1.1,17.972-4.4,5.5-2.934,19.439a129.452,129.452,0,0,1,.734,22.373s-74.455,262.61-48.047,270.313,65.286-.734,64.919-5.868-6.969-106.732-6.969-106.732,38.511,134.973,86.192,103.43,37.044-37.411,32.643-39.612-70.787-106.731-70.42-126.17-.734-80.324-8.8-89.493c0,0,8.436-27.875,12.47-31.543S449.414,246.3,449.414,246.3s-6.235-8.436-11.37-8.436-9.9,1.834-15.771,7.336-27.508,32.276-27.508,32.276S387.8,246.663,391.1,241.528Z" transform="translate(-237.041 -149.284)"/><ellipse class="h" cx="16.138" cy="11.003" rx="16.138" ry="11.003" transform="translate(159.374 20.539)"/><circle class="h" cx="15.405" cy="15.405" r="15.405" transform="translate(187.616 0)"/><path class="h" d="M522.492,128.669a15.4,15.4,0,0,1-15.347-14.119c-.035.422-.057.849-.057,1.282a15.4,15.4,0,0,0,30.809,0c0-.433-.022-.86-.057-1.284A15.4,15.4,0,0,1,522.492,128.669Z" transform="translate(-308.469 -102.261)"/><path class="i" d="M520.925,333.309l-1.834,20.539,3.668,61.618s8.436,31.176-4.4,30.442-8.069-32.643-8.069-32.643l-5.868-71.521Z" transform="translate(-307.451 -185.682)"/><path class="h" d="M506.9,243.2l9.536,5.135s12.837,44.747,5.5,53.182-22.373,11.737-23.107,8.436-3.3-27.875-3.3-27.875Z" transform="translate(-304.06 -151.319)"/></g><path class="j" d="M239,0H-121.674" transform="translate(775.5 716.5)"/><g transform="translate(962.728 315.174)"><ellipse class="b" cx="46.158" cy="46.158" rx="46.158" ry="46.158" transform="translate(41.459 30.757)"/><line class="f" y1="164.32" transform="translate(87.6 77.015)"/><ellipse class="a" cx="6.967" cy="6.967" rx="6.967" ry="6.967" transform="translate(80.633 69.97)"/><ellipse class="a" cx="6.967" cy="6.967" rx="6.967" ry="6.967" transform="translate(102.031 188.857)"/><path class="a" d="M671.934,354.053s1-21.405,21.4-18.917" transform="translate(-584.334 -241.53)"/><path class="a" d="M671.934,490.765s1-21.405,21.4-18.917" transform="translate(-584.334 -317.561)"/><path class="c" d="M672.23,609.276s-4.479-41.606,21.4-43.6" transform="translate(-584.63 -369.857)"/><ellipse class="a" cx="6.967" cy="6.967" rx="6.967" ry="6.967" transform="translate(59.233 188.857)"/><path class="c" d="M740.878,609.276s4.479-41.606-21.4-43.6" transform="translate(-653.281 -369.857)"/><ellipse class="a" cx="6.967" cy="6.967" rx="6.967" ry="6.967" transform="translate(58.809 123.508)"/><path class="c" d="M741.834,459.829s4.479-39.387-21.4-41.377" transform="translate(-654.662 -287.978)"/><line class="c" x1="58" y2="1" transform="translate(58.772 240.326)"/></g></g></svg>