<svg id="Layer_1" data-name="Layer 1" xmlns="http://www.w3.org/2000/svg" width="100" height="32" viewBox="0 0 100 32"><defs><style>.cls-1{fill:#231f20;}.cls-2{fill:#002782;}.cls-3{fill:#2f71ff;}.cls-4{fill:#3fe2f8;}</style></defs><title>logo</title><path class="cls-1" d="M40.9377,8.5015a.7215.7215,0,0,1,.713.7127v1.8746a.7215.7215,0,0,1-.713.713H32.5154v5.122H40.41a.7215.7215,0,0,1,.7127.713v1.8746a.7209.7209,0,0,1-.7127.7127H32.5154V26.27a.7209.7209,0,0,1-.713.713H29.6639a.7215.7215,0,0,1-.713-.713V9.2142a.7215.7215,0,0,1,.713-.7127Z"/><path class="cls-1" d="M50.2579,12.99a7.319,7.319,0,0,1,2.627.4489A6.267,6.267,0,0,1,54.918,14.68a6.1816,6.1816,0,0,1,1.3727,1.8483,6.0325,6.0325,0,0,1,.5943,2.2705,5.8289,5.8289,0,0,1,.0263.6073v1.4654a5.67,5.67,0,0,1-.0263.594,6.5912,6.5912,0,0,1-.6073,2.2705,5.8355,5.8355,0,0,1-1.36,1.8353,6.3751,6.3751,0,0,1-2.0331,1.2276,7.9123,7.9123,0,0,1-5.2544,0,6.3622,6.3622,0,0,1-2.0327-1.2276,5.8209,5.8209,0,0,1-1.36-1.8353,6.5681,6.5681,0,0,1-.607-2.2705q-.0267-.2376-.04-.594c-.0092-.2378-.0133-.4794-.0133-.726s.0041-.4927.0133-.7394.0219-.4489.04-.6073a6.0258,6.0258,0,0,1,.594-2.2705,6.1711,6.1711,0,0,1,1.373-1.8483,6.2545,6.2545,0,0,1,2.0327-1.241A7.3169,7.3169,0,0,1,50.2579,12.99Zm3.1947,5.9408a3.4544,3.4544,0,0,0-.3829-1.36,2.5666,2.5666,0,0,0-.7524-.8581,2.7145,2.7145,0,0,0-.9772-.4356,4.9793,4.9793,0,0,0-2.1648,0,2.7052,2.7052,0,0,0-.9768.4356,2.5563,2.5563,0,0,0-.7527.8581,3.4487,3.4487,0,0,0-.3829,1.36q-.0267.2114-.0393.5279t-.0133.66q0,.3433.0133.673t.0393.5149a3.4453,3.4453,0,0,0,.3829,1.36,2.553,2.553,0,0,0,.7527.8581,2.7052,2.7052,0,0,0,.9768.4356,4.9793,4.9793,0,0,0,2.1648,0,2.7145,2.7145,0,0,0,.9772-.4356,2.5633,2.5633,0,0,0,.7524-.8581,3.451,3.451,0,0,0,.3829-1.36,3.9409,3.9409,0,0,0,.0263-.5149V19.4585A4.4855,4.4855,0,0,0,53.4525,18.9306Z"/><path class="cls-1" d="M66.3365,16.4223a3.1408,3.1408,0,0,0-2.2839.7,3.1393,3.1393,0,0,0-.6994,2.2839V26.27a.7215.7215,0,0,1-.713.713H60.6336a.7209.7209,0,0,1-.7127-.713V13.967a.7209.7209,0,0,1,.7127-.713H62.64a.7215.7215,0,0,1,.713.713v.607a5.3286,5.3286,0,0,1,1.4651-.9768,5.1372,5.1372,0,0,1,2.0464-.3432h1.1879a.7215.7215,0,0,1,.713.713V15.71a.7215.7215,0,0,1-.713.7127Z"/><path class="cls-1" d="M83.8416,26.27a.7209.7209,0,0,1-.713.713H81.1222a.7209.7209,0,0,1-.713-.713V19.5642A4.0191,4.0191,0,0,0,79.67,17.03a2.697,2.697,0,0,0-2.2705-.95,2.7355,2.7355,0,0,0-2.2045.95,3.7886,3.7886,0,0,0-.8054,2.5346V26.27a.7209.7209,0,0,1-.7127.713H71.67a.7215.7215,0,0,1-.713-.713V13.967a.7215.7215,0,0,1,.713-.713h2.0067a.7209.7209,0,0,1,.7127.713v.607A5.9123,5.9123,0,0,1,76,13.4387a4.971,4.971,0,0,1,2.1915-.4489,6.4011,6.4011,0,0,1,2.6931.5019,4.6379,4.6379,0,0,1,1.7426,1.3464,5.1757,5.1757,0,0,1,.9375,1.967,9.8261,9.8261,0,0,1,.2771,2.3632Z"/><path class="cls-1" d="M91.1024,26.244,85.8747,14.1517a.58.58,0,0,1-.0267-.1848.7215.7215,0,0,1,.713-.713h1.98a.8093.8093,0,0,1,.5546.2111,1.1115,1.1115,0,0,1,.3168.4226l3.5115,8.1586,3.5115-8.1586a1.1151,1.1151,0,0,1,.3168-.4226.81.81,0,0,1,.5546-.2111h1.98a.7209.7209,0,0,1,.7127.713.59.59,0,0,1-.0263.1848L92.5545,31.3663a1.1081,1.1081,0,0,1-.3168.4222A.808.808,0,0,1,91.683,32h-1.98a.7221.7221,0,0,1-.713-.713.5883.5883,0,0,1,.0263-.1848Z"/><path class="cls-2" d="M9.8354,0H28.65a0,0,0,0,1,0,0V0a9.8354,9.8354,0,0,1-9.8354,9.8354H0a0,0,0,0,1,0,0v0A9.8354,9.8354,0,0,1,9.8354,0Z"/><path class="cls-3" d="M0,9.8354H18.8145a0,0,0,0,1,0,0v0a9.8354,9.8354,0,0,1-9.8354,9.8354H0a0,0,0,0,1,0,0V9.8354A0,0,0,0,1,0,9.8354Z"/><path class="cls-4" d="M.0678,19.6709H7.3125a0,0,0,0,1,0,0V22.346a4.6374,4.6374,0,0,1-4.6374,4.6374H.0678A.0678.0678,0,0,1,0,26.9156V19.7387a.0678.0678,0,0,1,.0678-.0678Z"/></svg>